<mxfile host="65bd71144e">
    <diagram id="GLMQ-9-ujG7QucVG7HQS" name="Page-1">
        <mxGraphModel dx="1688" dy="637" grid="1" gridSize="10" guides="1" tooltips="1" connect="1" arrows="1" fold="1" page="1" pageScale="1" pageWidth="850" pageHeight="1100" math="0" shadow="0">
            <root>
                <mxCell id="0"/>
                <mxCell id="1" parent="0"/>
                <mxCell id="2" value="userName&lt;br&gt;password&lt;br&gt;email&lt;br&gt;address&lt;br&gt;role: ['admin' , 'user']&lt;br&gt;phone&lt;br&gt;rentedCars: [{}]&lt;br&gt;owendCars:[{}]&lt;br&gt;forgetCode&lt;br&gt;isActive&lt;br&gt;tokenVerified&lt;br&gt;isVerified&lt;br&gt;isSecuried" style="whiteSpace=wrap;html=1;align=left;" parent="1" vertex="1">
                    <mxGeometry y="90" width="120" height="210" as="geometry"/>
                </mxCell>
                <mxCell id="3" value="userShema" style="text;html=1;align=center;verticalAlign=middle;resizable=0;points=[];autosize=1;strokeColor=none;fillColor=none;" parent="1" vertex="1">
                    <mxGeometry x="10" y="60" width="80" height="30" as="geometry"/>
                </mxCell>
            </root>
        </mxGraphModel>
    </diagram>
</mxfile>